<mxfile host="65bd71144e">
    <diagram id="HIP3nbAZw_EuaXWnEj3U" name="Page-1">
        <mxGraphModel dx="606" dy="546" grid="1" gridSize="10" guides="1" tooltips="1" connect="1" arrows="1" fold="1" page="1" pageScale="1" pageWidth="850" pageHeight="1100" math="0" shadow="0">
            <root>
                <mxCell id="0"/>
                <mxCell id="1" parent="0"/>
                <mxCell id="7" value="http://ics2o.mths.ca" style="swimlane;whiteSpace=wrap;html=1;" parent="1" vertex="1">
                    <mxGeometry x="40" y="40" width="760" height="480" as="geometry"/>
                </mxCell>
                <mxCell id="8" value="A loop with js" style="rounded=0;whiteSpace=wrap;html=1;" parent="7" vertex="1">
                    <mxGeometry y="20" width="760" height="60" as="geometry"/>
                </mxCell>
                <mxCell id="9" value="Enter the number" style="text;html=1;strokeColor=none;fillColor=none;align=center;verticalAlign=middle;whiteSpace=wrap;rounded=0;" vertex="1" parent="7">
                    <mxGeometry x="20" y="120" width="150" height="30" as="geometry"/>
                </mxCell>
                <mxCell id="10" value="&lt;h6 style=&quot;padding: 0px; font-family: Roboto, Helvetica, Arial, sans-serif; margin: 24px 0px 16px; font-size: 16px; letter-spacing: 0.04em; font-weight: 400; line-height: 24px; color: rgba(0, 0, 0, 0.87); text-align: start;&quot;&gt;This will add up all the integers up to itself.&lt;/h6&gt;&lt;div&gt;&lt;br&gt;&lt;/div&gt;&lt;p style=&quot;padding: 0px; line-height: 24px; font-size: 14px; margin: 0px 0px 16px; color: rgba(0, 0, 0, 0.87); font-family: Helvetica, Arial, sans-serif; text-align: start;&quot;&gt;&lt;/p&gt;" style="text;html=1;strokeColor=none;fillColor=none;align=center;verticalAlign=middle;whiteSpace=wrap;rounded=0;" vertex="1" parent="7">
                    <mxGeometry x="40" y="170" width="380" height="30" as="geometry"/>
                </mxCell>
                <mxCell id="11" value="" style="rounded=0;whiteSpace=wrap;html=1;" vertex="1" parent="7">
                    <mxGeometry x="40" y="220" width="160" height="20" as="geometry"/>
                </mxCell>
                <mxCell id="12" value="Calculate&amp;nbsp;" style="rounded=1;whiteSpace=wrap;html=1;" vertex="1" parent="7">
                    <mxGeometry x="40" y="270" width="120" height="30" as="geometry"/>
                </mxCell>
                <mxCell id="13" value="" style="shape=image;verticalLabelPosition=bottom;labelBackgroundColor=default;verticalAlign=top;aspect=fixed;imageAspect=0;image=data:image/jpeg,/9j/4AAQSkZJRgABAQAAAQABAAD/2wCEAAoGCBUVExcVExUYGBcZGhkcGRcaGhkaGhwfIBwZGhwaJCEfHysjHx0pIx0cJDUkKS0uMjIyGiE3PDcxOysxMi4BCwsLBQYGDxAFDy4bFRsuLi4uLi4uLi4uLi4uLi4uLi4uLi4uLi4uLi4uLi4uLi4uLi4uLi4uLi4uLi4uLi4uLv/AABEIALcBEwMBIgACEQEDEQH/xAAbAAACAwEBAQAAAAAAAAAAAAADBAACBQEGB//EAEgQAAICAQIDBQQGBgcHBAMBAAECAxESACEEMUEFEyJRYSMycYEGM0JSkaEUU2Jyc4JDkpOxwdPwFSREY7Kz0YOiwtJUo8M0/8QAFAEBAAAAAAAAAAAAAAAAAAAAAP/EABQRAQAAAAAAAAAAAAAAAAAAAAD/2gAMAwEAAhEDEQA/APnXA8KZCQpUUpYl2xFCuvIc+ZoeZA31SaJkYq6lWHMEUfT5HmD1Gmeyv6X+DJ/8dVg4rwhJFzjF0Lpkvng1HHffEgqfK9wCta7Wmp+D8JdDnGKtqpkvkHWzib2uyp6MTYAMdBULrlab7PhDyxoeTSIp+BYA/wB+n+0+z40jySyWkDR7k+xkEhi/mPdtfXloMWtStGmiZCVdSrDmGBUjruDuNNdicMskyK1FSygjfezXTQZ9alaPFCWYKN2JAAHUnYD8dMcFiY5bjRiqBlY5ggmSJPsuARTMaIO/4aAHCcLmGZnCIlZMQxO5oAADc7HnQ25663AyCJZcRg175LezYHa7oEgWBQyXzGjcOPYS/vxf/wBdNRsncWRIU+rK96ti2EpoGCqLIDsxI2vmLDIjQsQqgkkgADmSTQA9b04nBUSkisGwkdSHQgYRu9FQDd417wq+ujdkRp38JDb99FSEEms1o5VR8v8ADQ+z1TPwKyjuZtmYMb7mXqEX06aDPrUrRcdbvCdlmRYkyKxEKbABt3yLyNuAFjUYljdBNhuxAefRCeQJrnXTcC/xIHzGm2Qx2G9+yCp2o3RFHyrfWl2fwbIJVeOVXMXIRlnNTQ7qpItd+d9NrrVu2OIljTu+8tJMhIuIpmQhQ5BBKuEWIGtw0Z676Dz51aOMm6F0LPoNhf5j8dbA7LXBSBlJ7JgpljUSIylpAq1kMDgt3vbkDwnHnDtG5lHdCO4goRZlRSRNESQ8uQugNrNhWPXYMatdXWlxKx/VRR5sG2lUuztz8OI8JAurUb4hrrbS0/CSILeN0B2BZGUX5bjQKkaNxfCPGVDiiyhqsWBZFHyawQQdxW+muEXu1Ep96z3S1e42Mhv7Knl5t5hWGucdusJO5MTbncn202/x0CFad4CI4s+JKrWTVYW9hZ6EnYeel8da/ZXDXw8viYM5xjALYsUUu4YDwtYKooPV9uWgxpOZrlZoarWj8PWQNgepQSAfynZvgdPzzQGVmCezPuJ3RGAs0pCTpZArxlmJ9NBn8Dw3eSIhYIGIBY8gOp9TXJeZNDrqk8WLMv3WI/Aka2Oy+DDqhCxFmlVBk0qkZZYsSJlUbqQFrI0DvYsXEcMzRNIIogtW0itM1Eyd3iGMrIzHZuvhYHqNAj2dwTSvgpGVMQDe9C8RQ5nppXW79GuHjLM8qhxhKkaFsM5O6c8+e2w23ykTWXxsARtjkpAZG+8puj6HYgjoysOmgpw/CPIGKLePPxKOjEAAkFmpWOIs+E7aABrX7B4tYhKzLlQRwvg8RDd2VOSsKKyuDQur1jnQd1NTU0DnZZ2l/gv+bIP8dX4HARSM6Z+OJbBKsoZZiSp3F2q8wRty6gfZvuzfwj/3YhonCIWhkpSfaw3QJ+xxHloLLE0ftYXLKK8Y8LLe2LrZxB5dUa6s7jVsY5OWMUnlyib4fqj8fB+4BWgwmSNgy5KR1oj4j1B5EHY9dMHu5PuxSeROMTfAn6o+h8HqgFaAUWUUqllIaN1bFttwQw+R2+Wu8FxTRlK8QR4nAN/0ZcqPQeNvx0bvCvs50JVdsT4XT9xiNh1xIKm7qzerJwQoupzjFbjZlJNAOt+H8SD0J0HWnuRHjsBVoA+zCjcBQYmUkbncFbN7atL2ke9R6JKFTReRrxYNVuznfl6eXPSk7Vag7f8AnmP9eWnuLQrGYlcgxqGlQWEcMwIkH3yuSDfagpWxZ0CnB8SkcsckaNSMpIdkksAg19WAOXOjXPXOF4hVD5oWzUKcWWIABkfYBCOaDlQ56XrU0DfC13U221xNRvkGIraj9qumrL2gMO7MMWF5UDLz2BIJkJF0OXkNB4SYLmGUsrqFIDBSKZXBBKt92uXXQnqzQIHQE2a+NC/jQ0Gr2hBHEsZPDsCyhiS7hLIDAKbNmjuPT12W4WRCxCRBD3c2+TsfqZdtzX5dNKSuWIJ5gKvyUBQPwA1fhZQpY42SjqN6rJShPLfZjttvXwIL1piLjHC4BvD5fO69QDZA6FmI5nQ1NG/LzAI/A7Eeh1rdo9oCRFTMHeMOwUqWUIl+LC8Q4fY9cSAdBjk7318xtrrOSFBOyilHkMi397HT3EJGrJ3D5sT9oAqOgvvEUfiK9dG4+llWQxWAIy8ZKbPTAB8QAcsMyMVsNWx30GRjrta2u0ZYe6kWPmswIoIQ1ma2DA3hjgKqhS/eJ1j6B3sqEFZZL3jR7G3uvHLGG+UjRr/6g1Z+FjYRsCqosYMuGV3ZpfFYzbZRvVqzUFF6TgjZ2CKLLbAcvXfoAOZJ2FX0032moVUSNsoqyDixm/uuxBAIIIxAPJaP2ySCnFTF2yNDkAo5Ko2VR6Af+TuSdPLAjxpkxDLAzIoHMiaZms9AFB25kkeR1naa4s0sVbeyYfjLMCPwJHz0CZ1qcS5jBVTTQmEA+I1IC7ufukiQsN+iiuuluzFHeB2FrGDIQeRx3VT6M+Kfz6a7FiWUusjgBgxLsWoERysGNbE5AHfmeXXQJdoxAOSgpHAdB5K2+P8AKbT4odCihZiQqliBZoXtsL/EgfEgddNEZQkbZRN6HwOf7lf/AL2mfo7KuYjZmXvHUZKL5rJFidwQPaWCLoqNuoDLaxamxvuu/MWBY8xZ/E6JA5oxpGpZ6XIZFyMlYIPFj7yr0v10Tjpw5WizBUC5t7zVZs7mueIFmlVRq/B+BWk67pH+8R4m/kU8+jPGdA72XKF4qJFYYR+ANlQYn32ve8msDzUIOmkuzYDIphawwNxnyfk0f89Ch94L5tqvZ6EEsDiMJPFYH2GH9/TronbrgTSqood4+/xa7Hy0Gb3RZgqDIlgq11Y7KLO1nWnxvZMjBzHi0cKquzrkykGQygWclY5EEG6pd8TVTxsi3PE1M1pKKBGTA+Mr7pDjI7ggMH2Hh0vP2jkGK5xuVVSImIiZQoTEpdr4QBsSDjWI5gEOLhMbskgZXUkMp6EcxqapWpoH+yFDGRCyIXjxBdlRb72I7sdhsCflo/C8DIpGM0K3V1xMQ54c6fpmb/hv5C8sauug3IYeJNVxC71/xSdcPKTpnv8AuP5Czpw3GbVM29cuI88fJ/2v/a3lrAGrgaDYn7J4lzk9uaq2fI1zAsk+fL465D2RxSHJEYEXuPKjY9Qaog7GwOuskqNcxHkNBty9jyOa7po5DewVu6bcjY8ozsdj4TsQVFA5ss0igxM8gVSQYyzYgg7jG62Ppz0tiPIasNA72fArK5dDiAblshUIUlRypiTQx5m9q565JwRRkDr3hdbCRSIW3uh4Q/Sjy3B+OgpxThDGG8O+xAPOgasWLocvLU4binjyxIGS4NaqwK2DiQwIrYfhoCcVwbB5BGrSKhPiVS1VvuV2sefLY1tq/anBCLHFg6tnTBkYEK7KD4SeahTv5nS6cU4DBWKhryC+EH5ChXpy1wMzALey3Q22ur/uGgGK68uutLt/hFicd3QUl1IAkFMjkH6zciioyBILB65VrPlQjY6Jx3EmWR5Gu2JO5JqzdWeg0AdNQ8EWxGaB3rFCWyN+7vjit9MiNiDyIOlCdanZXGRB1aZWsKFyWiCKC+JDV+C1sHlWxO5BLjOEkjOMiMhPKxQPqDyYeovVO8OOF+G7r1qr9dvPlZrmdeh7a47vXZ0L90qgZJjKmI3uSFqx3LbtXIUNZp4dX3C31yhJb5mJ6cfEFVGgzdTTI4Nm3iIlH7Flv6hAf5gEeul1F8t/hoPQ9hcE8csQeN/aFe8ZoS8axtXgNiqYG3O5Aoc8hqnEdmSBNopWHezH6kjYrFuFBICkihX5axUjUe8Nx06eh0x2cY3mUSg4HaroWdrJ6Ac/lXW9ASLsuV3OUUyLTsT3Tk+FWeqNAk1Q3G5Gh9rxYd0tOKi5OmDfWy81s1+OkFUeWu6BseGD1lav5E3PyZyPnCdUh+rf4x/e/b8tvx+XXTPajqj92qgmICPJt1yRiXKryILlz48ry6av2bxrAOCYr8GIkDKvhLn7FDYnr56BTs+RRJTGkYFHPkrbZfymnHqo0KSNkYq2zKSD6EGj+Y1tdpCMsO5aHEEg5kNkAxKfYyXY0d7O17i9R+GiZhJIwK90M8GZvGjxRNRxslkdX3+025oEkMSJCzBVFsxAA8yTQH46bnkjLBAQY4xipsgMbtn/AJms/u4jprvZnEJGjyB2WcFTEQNl3p7PLdWNbH3TysXde0cqyMiEVTwsQNvd9mWC7b1iUAs7aBdJAHYBhWEvUAWY3BAO/O6rrddb0PtZvaAnrHEfmYYyT+N6bVJj9TM0lVQSRw4xvEYGmNWfdBAs76JOvEFYiplXGOmYsY1UrLKqhmYhVIFAAkemgyOF4kI3iGSMCrrtbLsTV8mBAYHoyqdd4ngmTI+8gxqT3VcNeJWzZJAPhFkYsD7ppwcV3de1klYVQDyJEuN472Her2AwAs0SOaXEcdIxOUjG1CkclxHuqFHhCjoAABZ8zoFtTU1NBZEJBIBIUWx6AWFs/MgfPVolJNAWaJ+QBYn5AE/LROC4sx8lB8ccgu6yjLVYHNSHaxt08taEHaF5YqPaWZDQABfvVZU3JVSHjFXziG3TQT6MzBOJibEMe8UAGqtiFBIIN1d15gaHJwzMhmRMYyWOIJOC7bk17t5AHn4Gvlem+y+AYcRCdkHex/WMqE06g0pOTb2LAq9tBWSaKNQGpNwGRldCeeJKkqa3OJ5ZHbfQB43hTGQGuyLIIoqQzI6keYZGHyB2utA07xfDymGOVwShtVY3fvyHc9SSJPXw/C0tA/wAUROxaJT3kYBkTPbGUkD2b1dDy5aHwXCPOWKAWKJpTW99EUgcvTQoOKkjvu5HW6vFit1dXR3qz+J1TiJWkOTkseVnc6B/gezUYuJJRGVfD3bF4yPkbK0PZla52y+uiLw3dgyRgymmys4qsbxKfGoOVsjncMBYoFiNZGrwx5Gv8L0HALNDW92RwcLCNCfa5ZPRbdAfEu4oUttY+7rJk8Gw3B3/AMPwOhRzMpyDEGmF9aZSjD5qSPnoNS8oDKiR3sMO6RmBFd4/tMyYhaixyL71j4suJGdqUWxvYUB5k9AqgWb2AA6Aatw8bydaVF3ZiQqKSeZ8iWbYWSWIAJNaK8l+ygViGIB29pKb2sC6W+SC+hORAICxnEW0TW/2pR081jvcDzfmeQoXlUcSj/WIAf1kQCnrzT3G+AwPmdGETRe4paXq4BZY/RSNmf8Ab5D7NmmHM5G+tiaX9oqwk/rgWT++GHpoKJwr3lA/eEbjC1lX+T3viVyA89D/AEoNvIgY/fXwSX55AUT6spPrpkdlM/1QkB+5IhQ/J6wPxJQ7bDVOKlkVinExlmHPMFJR5HOrPpmHHkNBcuJObLL6S1FN8pLxY+WTH93RGk8VPu1e5PccoHpNtfWi9DlSnSn6Kj/VOL/VyUjfJrwb8VJ6Lqomkj9mwNDnFItgXv7rDwk+Yo789A12lwR5rWQsNFkrSJjzPhNMN/IEUfDQvWZp89oqzq7xLaFKEbMgpKxU3ltQA2o+ug8fxCyEMEKtvmSwOZ+9SqoB86G/PnZIVj4KVlyWOQqeTBGI/ECtVn4V0UM6FQxIGQomqvY71uN+XPyNMJMe6lYnxBoFB5HwrIFG3kqV8tV7ZP8AvE38WT8nI0HW4mNzcqNkebowGX7TKwILeZBW+Zs2TTCH9ZL/AGSf52qLwkh3EchB3BCMfgeWjcNwDl1EiSIl+Ju7c0PkpPpyPPkdBXKEcllf95lQfMBWNfBhoc3FM1clUDEKthQt2Rzs2dySSSeZ0ftHhAreyzZOmSuGGwu7QA73VdKujtpXu2+6fwOgcThqhL92GY2fEWBWOgBKqgixkSCxsDEbbnSGnF4p1AyjUnFkWRg4aipQjZgrUrUMgaBA5ADS0ETOwVFLE8gNz5n5Ab3oBEae4+aNoIhk7SrkGyZ2Crk1ABvCooL7t3Zuq3DxfByR/WRslkgBgVJrnQO5Hry0GHh3kNRozmrpVLGuV7DluPx0C7aGdGKEkgA2ASRRsBQSx+AAJPkAdVmiZcSykZLktirWyMh5iwRfpoB6mpqaBzhOzZHXIYV6yRg9ehYEfPWp2ZwTiaMAJiGDN7WKyFtitZ8yBXz9NJxdqYYYxxsVDi2U0QwAIq6PLqLoAXoM3aLtMJqUOCpFClteVi9xsBXkK0Gpwsc0nFRSSmIuZYiSJOHXk69FYfDlew0DsrhmVgrNF3b0sg76HdSefv8AvL7ynzA13snhlbiIWhZQvexHu3dVdPGvhtyBIPIrZPUA7aDwnDiMq8rJS0e7V0dnI3x8BIUeZatrqztoCz8NKB3bPFSEiu+gG4Ldc8jRZ6B5ZNys6tF2ZSrJI8Xd94qPjKjOAdyRjle3QWR1FapDNE2JlVi1guRtlTysw2PNw0a3tjifPQu05Ud7iUqtDY0N6Avba9hZ6kX10A+MVA7CM2gJxJ5kdCdhRI3rpy03wcqdyys0QY2qh4rIU7lw6xMxezQsjHc+WOfqaA+cfdVj7Tzxbz+93uPL/l/Prpjj2jCRsqANJcjruAACYwqkGwpZZGocrUfZBKJGuXoNRe0UDTsqFRKrqsalsQGDAE25orYPUcwAt2FezuE7wnxKqqLYlkBPooZhkx+IA6kaV1ANBsz9nuyqoeFEG4j76MmyFtmN+J9yCf2WAAFDQV7JdTYlhBHIiaMHlf3vlpPjODlirvY3jyFrmpWx6WN9UghaRgiKWY3SgWTQJO3wBPy0Gm/CS/8A5MZ5/wDEp5Mfv/sgfzr61R+Fl3/3iI1f/ER713nK364D+0T1pLjeDkiIWVCpIyHI2LIsEEgiwR8joKqSaG5PTQaMnBPv7eE1f/ER71nyt+uAr+InLxY0bs1r+tgO9X30Xm4v3rrwg/8AqL60txXCSR13kbpfLNWW/wARqsXDuwJVGYDmQpIHzA0Dn+yz+ug6f00fp6+p/qn0sixyKoXvIJE/VtNEyrsDtbgpuSLQg2p9LzZUK+8CvxBH9+hrIDyI/HQax7OR/dkiiP3XmhdPkytkPQFT6trLI0b9Dlw7zupMKvPBsK88qqtB0B+J4t3XFq6EkKAzEAqCx5sQCRfqTzJOq8TxDOQWq/MKoJ9WIHiPqd/z1R42ABKkA8iQQDqugc7RmbJRk1d1BtZr6mLQ+Gdyfeah6t/hovGR24s17KD8O5j30GSatl2GgvNxj34ZJAP321X9Ol/Wyf13/wDOl9TQaILypCjOxLTSKCxLVY4cDn031nwkWMgSu2QBokdRdGttPcLN3awSVeE7vXniOHNflpbjZVdrVcRQHJRdfaIRVUE+QA+ZskGJOORpFd48gBJkt7EtLLL5bV3lfLQJHjaXJVSNRyDq0iX+0PFYO42FctuZ0Xg+AMqAreRlWOzeIyHhugSLahfLfSsfCuxChTbMEFggZE4gE9Degc4viMJXcEhOIjmvbx0/eoOe4Uti/O6x59Q9o8aJ+6tFVgGDFc/vuyqMnYBQCKA5chsABSTs2RnxhRnD94YqosyqoeyBuCUKNRAvNa5jRu0+yu6Vj0xjlja7uNiFKnl4rdDfLZh8AW/Q19dTSOpoINXXVBqy6B/sc+3i/ix/9a6cl7GZQh7yPFu7skkCPIXbEiqHM0SaKGvGtqcBIipIxA7xcTE2RBDZKD4eRpcmB2ogc7FCEjb+I7gA7ncCiB8BQoemgJxsIRyoOQ2IPmGAZeXWiL9b0LU11Fs1oOae7D4lo5GZay7qamIBK+ykO17dK3HIkdTo3E8PH3C92PaqC0u7WVzfcA7eFcbqvPemqsKxDDuixfuZzLkKAPcvsPT3vX/AM0nU03KkbCJIBI0h9/IAWxxAVaJBUG6Jo7m+Q1ftXuaQQjxDISEMzBjtRBPMcxYoHY0LoAjrR+jCZcVD1CyCQjzEdysPwQ6zyNa30UoTNI1VHDK1EqoOS9zVtt/S9efroPS9odjScRC9J4i4eLcBc6AaPxHJXcMBVbmJLq8jk/Q/s9mjaRVYtLlFEVA2VQGmaip5iowQNrk3BGtngO0u7lihkKqJjLtywdu6ETE7nLvFljyO9MbuiCDtbtkRTx8QWLSyGNScVBjijmBkxKmgsjLItLzuUlmsUGP9Moa7piCGAljKlsqxfvVF5NfhmUXfTbatV+hXAZ8TG7DwxkSHnQxKhWNfYzK36Xp/6ToVikVyrmHimQMK5SK1EgULuGjQAuxQIYaN9EUX9Hdpa9tKsYBZRSLzO6NkCWIxxJYxADerBj6TQSScPMGVwIwkkeWIBxYggANRxidySAPLkgC5X0S+ksfDRlHSUnvGcNHJiKKoMWU7MLQHnuLGvUO8bKPapO3eSmKFM1URFf8A/PtkhRRkt8qP7Na+d9r8J3U0kVkhW8JPMofEjfEqVPz0H1du3FWMSFpXjMHeiIMyPTQ98QXB3IAIu+bE7kAjxH0r+mH6TAYVjdVtWyaQNy390IKHLqar116bsgEQRAGMI0PDq4KAs2XCxjYhruiu7DlyA2Y/LAfD8tB9H45QsMyiqXhGKigCqjhlW23vInE+VN1O4+f8GwMiCxZdNjXVhW2vox4ru5HMcmAiiVsrOQURK8m6gnpRGGR8NPuCM9/pYNieLYYnKysshItWIIZVFkgn548hegZ+lmf6NxhLll7xFvJiL76MnmzDIUBzsA0edn59G1EHy17z6SSs3C8cGYMY5USwTianTerrrzob5LuFGvD8Jw/eHEMoJoANfiJNACgd9A5xXHxPiTFZCqpObC8VVBsOWw0D9Ii/Uj+0fVP0KQuyKpdlNHDxjyu1sEeuqrwrkAgbHPex9gZOD5EDej5jQF76L9S3ylP+KHU76H9U/wDbD/L1QcG4VHcMsbmlcgV+ZA/Egeu2q9oQd3I6WDiSLHI+vw67beRI30F+K4hGRURCoVnbd8icggP2R9wfidD4bh3kJCKWKqzmuiqCzN8AAdaHakCKliOOJvDcUjv363W+OdFT5lFO/LroXYXFvG7lCATHIcqBPhjdgN9qyCkjriPmC0HGskbxisX53djYjbetwa3B9KO+pH2jIqoofwowZVpaBDZjpZ3356Z4OeIwiKRH2dpDIlE0I2GIGJNbA3dDfbrpbiIo0co4e1Z1Yqy70aBW05fG79NAKfjHsBHdUUkpGXZlQEEUAduRIur3Olu+IQoORKkneziGCjn7oyJrzPoK0uJeARAord4605oMisuJxTMWMgwLGyylQB4W1knQc1NTU0EGmF4d8DJicA2JboDsaPlzH4jQkjLXipNAlqBNAcya5D105FMyRRsho95OOhBBTh7BB2ZT1BBB0C66uNMrGkn1YCSGvZE+Fj/y2J2P7DG/ulrCgUUTFsArFrrGjlY5iqu/TQcRCeWj7IOhY/6r4f6+HZioAKkX6b7ev/jXF41wAKj2AG8MRO23MpZ+J0BZONFIUQRyodpFPvc/eFbm6+Vg9NOdnxRNlIBJ7koeOMLUdwyeIWSWVt8RtRpS3Itn/pz+UX9jD/l6Lw3a0sbZRlEaiMlhiU0diLCXR0E4tVhyjVspGFO1VgpG8VWac8nomt1BPitHTI41/uxf2MH+Xqz8XIKtYxYBFwQiwdwfq+R89Apr0X0JCjv2LojYIgykjjtS2b1mRZ9kq7cs+nMYU07PQIT+WONP+hReqNGw5qR73MH7Nhvwo35UfLQan0rlVp6UqwSNBasrC2BlcAqSpxeRlsfd1ncZxMkjF5JGdyAM2Ys2wobnfVm4OSg2BIKZ2vjAWyMjjeNFSDdEVvobRsOakc+h6AMfwUg/Ag6D2/0j7USeLiWEsWEkcbover3veK0b44EA2Rmm3KvtdA9pcZFBw4WKSKRo0WONkaKQNITbyFAW2WpHUtsDNHteQHlOG4GRyoCkZByhIYB8FLMFNbnavjXLQeGjLuqLVsyqL5WSAPlvoPQ9gfSJ8xFxDqIW2tYok7pss45fAgJCvuQdiHfYk6H9MRGe7dJIncZK/dur5C81bYCqLMm4F4qaF0MJk5lbK+KmogECrPpVrflkPPRY+FYjNwyxhwrvXu7gHbqRfL4DaxoPe9g9p8P+jRq00aERjMF4FfNVkjUEPT0FCG1JJBAANnH5wvL5aa4/he6IUsrGjkFIOLAlWU0T5XvVg8tL6D3E/EJ3cr97GcuCC0JICxY8LHHhjZkBzJ5UbDWKN68Mw2OirAxUvXhBonb0+f2l+GS+Y0PQe1+kPGwnh+IwkR3mEJ+tRiMXjYIqA5KQoOd/aG+vH8HxLRtmtXRG4BFEFT+RIv11WCJnOKizueYAoCySTsAACbOmj2XLV4rVA33kVAEWpJzoAjcE6AK8UysWQKliqCgr06NflercPxRWOVBftMAfKlbK/jYAHozee4JUxYrYaiRkt4mjVi+h56roCRzMpUqxBW8SCRV86+PXVJHLEliSSSSSbJJ5knqdNdmRqWykUmMCSzRK5d1IyLsy2SV2XIXR1OP4cJKQQyI1OtAsQjjNB4iLIBAO/MHc6Ci8dKBiJZAvLEO4FeVXVat2WLcj/lTf9mTXY4YjsJJf7FP8/T3Z6wozASSFu7m37pNvYyG/rfL8dtAgqBW2LXhL7tE/Vv8A+3z/AGctU4/xJHJ5ju2/ejCgf/rMfxIbR4ViLE5yklZPdiQH6t7P1/ugbkdQCOuu8KkTJJH3ku47xfYr70YYn+m+4ZNvPHfaiGdL9Wvve/J+77sXL9rz9MNLHWjKkXdr7Sas5N+5TE+GKwB3+xG1nqCvlqGCEwO+UmSkBGKKodiRaEd63JbbIAV1slRoM7H11Nc1NAxwXGvFkEK03vBkRwdmXkwP2Xdfgx01HwsksCGON29rNeCMQCU4c1sKHw1mDTsDxGNVdnUrJIwKxq4IZYRzMikEGM9DzGgEVrYiiNiD+Y1pcH2jRHejOlZQ9W4UqVKmyM0okYkgj7LLrnFrDJI7iUjJ3amiO1kmvCx89STg0U0ZlB22KS9QCPs+RGgFxHClRkCHQmhIt43zxN7q37LUeosb6Bp/hgkZteIXcUR3cjKw+6ystMPQ6F2iIrUwltx4lKkKDt7pLFip32O4rmb2AXDw5BzdYIW5XdFRX52T0AJ01H2TIzYDngknJzs6qy+6pN0w0pwrEOCJO7Iun8W2x+6C2/LYddF7SlDlfFmVQBnN+I5MxPi32yxs7nG9rrQdbgiHdGZVKCzay8qsmhGWAHqBz01xw71lYyx3iFsLNRK2dgIaAArwjkB5aU4HijGHAGzoynle4IG9e7ZBI5HEeQ0yO1iQ4ZffRIz3ZES4oEo4qtFvALJvwllAAOwZunpu15WfvMyGwKFl8PgNjHboAaHlQ8hrvDFUja8ciQQxjjlBFHwU58O++S2fw01J2hACpSPkyOCERT4ZMhE13YwsFxuxC3e+gX/2pIloY4wQFRgytYCq6FaLUpIdwcQD4m5EkmS9pz+zfLCldYygCAIfCyDHoOdcwTfUarwvFRI5LIsqqDVhgZTkMWYsWwP2jQ3oqQQTrvfRKEDL3q5zOUvA0wRVBKcm9nZA2ojz0AuI49njEbKlAKAcRkKCLd87IRAfRBVWbr+nyYomZxjYMgpfCwJIN1Z3J56MskR7woqRE44CTKUAU2YBwPiJwIJG1NuOrDScMA2CoCVbGxI5WlUhWDgqZGa1taUAk2KAYFTx0ioUUBEkPeYqKFhvCynmMWU1R230SftWcgiQhg5zOaK2dk72RdA5UQRVmiOloJos1eXxp3Sq0dHLJFRAoP2bKh8r5FhzsFfjJAUUBgxDynZcaUlMdvsiw7Y9MvXQLzyF2Z25sxY/Ekk/36vwfDGRqHxJJAAABJNnYbA64sVbty/1R0xwk4ywsKrB0u9gWVlBJ+6GIJPkNBoRxkKY3VsrkAVVVmIK4OxJKgKHEeJvxFKHTWPxMGNEG1N0ao2PeUj7LCxY9QdwQS0kzEBWYLIgMdSgMpUNkIzkCFKtdWK5brjvyFGLGOT+loqxIYF98HDCwQSSpINeJuo2BSPLcrewORF+6aU36bgfPWhO20o/5HDH8uHH/wAjrPhkZGyUlWF/+CD6EWCD8NWXipA5kDsHN24Y5G+e/PfQDJ1fh4i7BVqz1JoAAElieigAknoAdDJ6n8dOTezTu/6RwDJ5quxWL48mb+VdiGBAvETAwOifVpLEF6FiUnykI+81DboAq743rNFaaj+ok/iw/wDRPo/AcUqoFMjR0zFwqhu9UhQFIPhJFGg4K+MnzBCnGqFCgEZUrCr2DKGF7c6I/LQ+zj4z/Cn/AOzLrvaXErK3eBcGYnJV9wVWON7gVtjyGIqgaWnZ7AObIHs5hv5mGQAfEkgfPQW7P4dnLYKWxRyVU01YMLA5sASLA5jajegI7RyBgBlG11zFqeW3MbVpzsRwkhcyd0URijUD4tlqiDezMa61Vi9KCcgLQTa6uKI8/O18Xpd10rQX7V4XuwAA2BeQxsTsyFYmSh50RZrckD7O2adbHaUmfDwu8wd1yQRnHJEF0NvFQxsX9/b1yDoOampqaDg1caNMiqoFeL0+Y6jVeEhMjqi83YKCeQs1Z9Bz0BZeHdAhZSA65IfNbK3+Knb4HkRbXH8WJcDgFKoqsRVtiqJeyj7t72fEdyKAa7RmEqUt4xqHiBAsR5GIrtvYVYT4twI3PKtZQ0DXC8Izi/dGLlWYEKxQFioNUW2O2gRoWvEE0CTQJoDmdug89Hn4kMqWvjUKuVmiq3iMTsD5nrXLc21F23KHMhKuxAFsoHLKtloH3jsbHLbYUCrcGwm7rbLMJe+Nk0DdXieYNct9DeIhUfanBII9GKkH12uvJh56LH2g6LimKJ3iSBRuAy3jRYlvz1bjJZJ5DIUJY1eIY8gAOZJPLqToFANP9l9ntITQ90FjszUBW5Cgk8wKAskjz1dey5QuSxS2N/cY/LlvoQ4mSMsrps2OUcgdfdIZTsVaweW/I+WgEULlOYVjSmixsY3QW2J8Q5DexrnFcI8bujKSUYqSAa2+XLr8Dq79oSsAGbIBnfFgCpLe9a+71JG22Rqr1ePtaVbCuFBqwEjrZVQADHYBVUV6aAM/ClVV8kYElfCW2ICsQbABNMOVj11zh+EdwWVSVHNzSoPQs1KPmdPTTYRosiIzgLilHwrzUvvzN33a4g3k9k0UyZJm3JcgHyCoo5+Sog+SjQN9nosbXKYHBBBRmdufIho0cBgeu+1jreqcdw/eSM0RhCk+FFdUocgKcIS1VZAsmz10H9HjHvSgnyjRn/NsB+BOujgsvqpFkPRPEsh+CsKY/sqWOgXniZDi6src8WBU/gdMns2TJVQCTIWO7s34sDzAOzbXy63W+hwcUyjAjOO942vH1rqjeq0fOxtpybjHURyRN4EDIhNl4mYUbJJ8RAOJHhIBxVSCFBLvGYY0NyN+nQc7oDlvy1TioDG2JIOysCpsEMAwPnuCOemX7UkxaNSqxsW9mqLiMiWKiwWqzyvQu0OIkkbKQDI+KwioWy3yOIF306eWgcjlJEQaiO5kYkpGznBpiBk6MeShRdgCttD4ji2mSQN9kh0Ue6i7Rsi+QooT/DJO5J13s9vqCeSzFSfJW7sgfD6z89B7LfCVA1DcoxNUAwMbXe2wY89tBztFSSJa2kAYmjWRsP8A+9XNeWq8FwbSZ414ELm73A51tz+ND10/M8jxU12IindgAAFZi7gKKAKriSALpr5WdLdmCgfbRxh8VYt3hZQHR8qVSD7o2vfQV4RO7BkcbqSsanq4qyQfspYJHUlRyJpRmJJJJJO5J3JPUk9TrR49BI5bvYgBsouTYWTv7PdiSWJ6szHroH6Gv66H8Zf8vQVj+ok/iw/9E+ltbXGqjrKFkhCmZSmKMnhAloErELNMuxvr66y+IgCgESI/oud/HxKNAHU07w5EcRdkV2dsUDAkAKLdtiOZZAPg/lqv6cP1UX9Vv/toOcNwucUjAjJClAmrGEzvXmQI7+APUgFFtaSdqMoZVjiAasgA4DVdWA+/M8/PQW44fqYv6rf/AG0CDaGdbXDSK8cpaKIeFljKhwc8GfK8j7oU7ebJexOs2OML4n5j7PX02v8ALQcXh/X8tTXP0r0/1+GpoAsxPPTnZ/hWWTqFwXn70gZf+2JT8QukRp7ijjHFH5gytv1esR/ZqjD+I2gZRjH3MrC0xZSPDZFsJF23Fo9Wd/F8NA4mExuyE3iay6MOjD0Ioj0I0zNxzDh0hoFSM7OJIORAquXunnv426VofEeKKOTqvsn+QuM/NPCP4J0C+ngsPsyx8NePuy3fZY72H9mFDbCuhHM3SGmDwclIcCe8vADctQVj4RuNmU7jcMCNtA7wPExxjwySKWkGVEqwjXMi2TemySwLI7tjv4Rpjj+0o2cDOVogsgGLurWbKls7yAYmtyccb3BGkOE7PZrzDrRCgBLYsTQSmZQNsiSTsFOmU7OjIXDvZWOfhjEZIwAYk4swqjYIJ/HQD47iImhUKLlYR5k34Si4bbD3huRbXdmiBrNVCaCiyTQHmTsB+OtaTgIxEJcJcCoYEyIt+MxlR7I2wIO3kDV0aD2O3+8K8KvaBnC2HYlVZgNkFhiAtV9qt70AOJ4cd5KI90jZhkWUbAkLuaBZgCQo3NGga1bgkCgysAQpAQHkzncWOqqAWI60oOza0uNn7uIRs4SNgGMEQGYayWVn3CrmtgEsygKMRuSAdnNJHEFaMKApJLoPFJkzNWV+ELGh9QNBl+Jm6szH4sxJ/Mkn89M8c4W4kPhU+Ij+kcbFvVQbCjoN+bHTEXZcqlXVowy0w9pHYIQSD7VXl4P3vTfTDcHML34c0SB4OF3pkAI8PIhiR6Rt6WGJqEa3h2dMTz4arAvDha3dkv3eQAD/AAYddtDHCTVf+78gaw4TqjPXu8wQE+LDpvoEZnMkZcm5ErM9XU7K582BpSeuadQSQ8HPg3iBKMMXUcyvPa/tAgMD0IHTWpNwc2LjKCiCCFHDqWA7pwLUA7k/jGfSw/7EkyrOKrrLvEr6zu797lXj/d9dtAKHs05tmbjj8Uki0ajAzzAuwGWsSdiWAvnpziuys+8kM0SuspR0NqiAFUUhueAut1FBCOYAZTinkjSJsiklMhxkGVKwZGJRv28Rf6r00rxPFd5uypndmQDFjzuwPCTveVWepOgNwoXCVXshcX8BG5VjHVkbA97d19nlvtTtYe2kPRmZh+6/jX8iNTssEyYDm6ugHmWRgo/rY/hq/akLqImdGUtGuzAjdLj6/sqp/m9dBo8POqlpbDl1EyxFRs6yDvGtgQvuykY7leqkAhDszilWRmeNXyFAFAygl0LHGxyUMB8R0019HkV6RhZVmO5IBSRQkgoKSSKBAsDxMTsDpTggQaSMSNRJysKB94kFaXcblgPPQV41l32Fkk7DEcz0HIen+gpp/jeEFPKjqYxIFUZgsbsmupAPI1uCDqvGcJ4kVI3V2BLRE5MtcidgRY3xIsVfJhQF7M7T7tBHk6oWkL4BCxtIwlFvJksjbbWdGhYhVFkkAAdSdgPx06/AARM5NMgXJCy5KTI6EFferHuzf7R+QezZkRyzlhStgVUMQ5FK1Fl5WWBvmq6C3aLrliptYwEUjkaJyYejMWb+bSumFSLepJaHOoU26b+321MIf1kv9kn+foFjqjnTeEP6yX+xT/O0ThWgV1YvKwU3iYUokbgH2x2ur9L0B50CARjZo4pciD/StGxcbb2KVCOR7sXtelPpBPFI+cWVszFrJ6iN7qtvE8ievdg9dxh0BZjI7MVk5riSWV1skOfME9DZB230idBzU1NTQG4Dhu8kSMWMmAJHQc2b5Cz8tM8UM5GeQrEWa8DbMosrhSg4lAAMWxNAUNC7McBnGQVnjZEc8lJq7P2Qy5x5dM7NCyKzcFIg8UbqOhxOJ+DDwkeoJGgcnjjqL2n9GvNPN5L93fbY77m/KtF7L4fPKJXVjIvhUWGzGTpQZRZ2KbHlL13pXheLcgKI0ethcSu1WTV1fMn8dPRmVSGeKKIAg5yQqlVvagjJyOdKCeWgzSCKJBFgEWKsHkR5j10yvaUoUKJCAKqqB2AUGwLyxAXK7xAF1tovavFCVi5AQW+ACqDiWLKCAasX06sT1s07G7tu8SU0rKtHJENiSP7TAgeEueW+NDc6AacfIBQc+/3m9N46K5G7uwaIOxHO9Ck4m2LDFSQRSgKKIxIoeYsHzs+ejiPhzgveSAliHkKjBQbCuAPFV4kjnV1vWnn7WYDvEkbEmUFO+ZWQMZERET3QqoUYMFNMKsVWgze/dkCXajkAB5seYFmi7kA8s2rmdRY5VBYLIoqmYBgKOxBPkfLWpwPHRkr3vE8QBh4wWk9/I3jixvw1QNC+Z5g5faXFl5HOVqSTQZygvehkFON8gQK0AL1qT9pxFMV4WJHxxzssN8rYKR71NQJJrFTuRoXa8ip4FaL3YgUEShxcaEkuYwSSd7DE+LQH4BxF3pPhoH6uYc6rxGLu+v3q8idAveiQx5eg6nWr/smIoCsxL43WIr6pZifevEAmPrbjoNC7SlClYvdh7wsHDrI2JKq7jAgYsqqQCLsEA89AlPKKxXl10C9a5i4Db2sg8IsAOVyCi9zECQWvel5nYULtNwvBLVzP4lDDEhq35MBHamr8NkrX2uoY165etTDg8lHeOUOeTnMMPqsNhFQP1mwDXtZFgBz6PNwUfEgTsGiwU5uGdQWNtGViO57timW4Ei3y20GXx/aLSBFKoioKCouK3QBb944r/VHral63g/ZzGUN3iAzDu3TOxEBGnJlbncklE5eBV2vRk4LssqWHFS+GyQy4346UAd1b7bkCvUx6DziOQbUkEciCQR8COWm+1OMMzq1HLAA8ySbZmI9LZiB0Brpon0k/Ru9B4RiYyqlgQ4xaqYAOt1td2eZ5bDVOxOJwLeNUsoSS8sbUCTaugO42OJBBpfCSBoB8PxpQDGwRyIPL18+uhcPxDobR2Q1VqxU1ttt05flpibhuH7xVjnIiIPtHjawQSKxWzRFEH19NG7IYqkpSVAte0Vu8FrTwqfCpyW5QSKO+N1oEUnYP3gY5ghs73u7yvzvfVzxkmQYMVYCgUAj23+4B56d4FwixI0tRPNKJHRnRSBHFQsrd+IgBlqzvQsgR4GOoj3oxLKkzjxCJmGQ2oWPDINsh7O78QGgTM7HK2Jy94k2W3B3vnuAdDvT8HDRNDbSqjAykEqzZlQmKVYKqQS2WJJuqNVokHZqMWRZUksyKsgzVFKtEI3JPMSF8Ko1zBbQSXtguiRsgCKFRgmxaMFSR4g2LkqGyHUDbnZezoOFkLB5TGC4xL3mqDmbHs2JuqqxjYvlpTtThkjWQDmk7xq9m3VcrJHL9WQQB7x0TgOzblxLI5jtpIlzzOHOMWoVmLVHSsd3FXoCcV2SwWLDFmMbMwDAkkAykrvi4CFV8BbdGHPmtxXZsiJni2ASJmYigO8FqBfveR8jes74/PTa9ovmruEkK3SyRoymwASRVFjQtve2G+w0CzqQASDRujRo0aNHrR20I61JOOiaFlaJu8KIqyWpClAgUAUMVbFixB5yNsdqZ4Hh+GcMVYhQ4bGTHPu0Txjwm/FnIwIFXCoIsiwwtTVuNK5nuh4Nq7zDLkLumrnfyrU0FdF4eZ0+rZkvnixX+46mpoCt2hMdjNIR5GRz/AI6kUQBybnv8653tqamgHNMW/wANDvU1NBL1L1NTQS9S9TU0DKdozAACaUACgO8egOVVfKtq0qANTU0FxKQKBNeWqXqamgl67qamg5epepqaCXqXqamg6G1y9TU0EvV4+IZVZAfC9ZCgbxsg7jYizuPM+eu6mg7DxToCEkdQeYVmUH40d9CvU1NBL129iL2NWOhq6/vP4nXNTQOl7iAegq5EBVUbsFBJoDI0q7m+Wgz8Y7rgxFEKCcVDMFoKGYDJgKHMnkDzA13U0Ap5mdi7G2Ykk+ZPM6Heu6mgg1U67qaCampqaD//2Q==;" vertex="1" parent="7">
                    <mxGeometry x="420" y="180" width="275" height="183" as="geometry"/>
                </mxCell>
            </root>
        </mxGraphModel>
    </diagram>
</mxfile>